Coordinates
version=1
nRows=21
nColumns=22
inDegrees=yes

Units are S.I. units (second, meters, Newtons, ...)
If the header above contains a line with 'inDegrees', this indicates whether rotational values are in degrees (yes) or radians (no).

endheader
time	pelvis_tilt	pelvis_list	pelvis_rotation	pelvis_tx	pelvis_ty	pelvis_tz	hip_flexion_r	hip_adduction_r	hip_rotation_r	knee_angle_r	ankle_angle_r	subtalar_angle_r	hip_flexion_l	hip_adduction_l	hip_rotation_l	knee_angle_l	ankle_angle_l	subtalar_angle_l	lumbar_extension	lumbar_bending	lumbar_rotation
      4.37000000	      5.66019156	      1.25810559	     -8.42159903	      0.42325154	      0.92525897	      0.02015767	     18.06647418	     -2.67783884	      1.07167427	    -69.03386862	     -7.97973795	      4.24732702	      4.07000525	      3.79408014	    -13.51559891	    -22.47823987	      8.24432133	     -5.60036895	     -9.17841801	     -5.41888103	     -0.50279941
      4.38000000	      5.84239115	      1.06117893	     -7.98630170	      0.43116028	      0.92596539	      0.01941257	     18.81221180	     -2.55015438	      0.58830403	    -67.93660615	     -6.68326779	      4.14888571	      3.18977620	      3.76321982	    -13.05318326	    -22.23309291	      8.55725484	     -5.54694044	     -9.53204178	     -5.14397230	     -1.10003032
      4.39000000	      6.03238442	      0.87021000	     -7.57419497	      0.43899665	      0.92658072	      0.01876315	     19.46743573	     -2.42789400	      0.11578047	    -66.60515307	     -5.52707671	      4.00934133	      2.31734557	      3.71587458	    -12.63545066	    -22.00779134	      8.86699985	     -5.48941080	     -9.88958032	     -4.88662677	     -1.63059379
      4.40000000	      6.19807784	      0.70402813	     -7.18963037	      0.44673192	      0.92704396	      0.01821696	     20.07383104	     -2.31606458	     -0.32198588	    -65.05346289	     -4.53597071	      3.90967948	      1.50535577	      3.66863087	    -12.25015307	    -21.82886438	      9.17787830	     -5.44330189	    -10.21306135	     -4.66191044	     -2.13290317
      4.41000000	      6.31150848	      0.58119905	     -6.83121378	      0.45437301	      0.92729263	      0.01777892	     20.66507380	     -2.24082317	     -0.74358531	    -63.30037230	     -3.66054504	      3.89926989	      0.79232784	      3.63282968	    -11.93856646	    -21.71046968	      9.50415195	     -5.41310727	    -10.46996533	     -4.49224528	     -2.57212911
      4.42000000	      6.45486818	      0.44944625	     -6.50546886	      0.46195350	      0.92754087	      0.01750181	     21.11328873	     -2.12290211	     -1.11301569	    -61.29271393	     -3.02520634	      3.85506385	      0.03193618	      3.58605816	    -11.58309349	    -21.55490103	      9.79181653	     -5.36959481	    -10.75853113	     -4.33121406	     -2.98977678
      4.43000000	      6.52286854	      0.37981515	     -6.20180015	      0.46947098	      0.92752750	      0.01731693	     21.56581214	     -2.06022197	     -1.47116972	    -59.10050873	     -2.43294410	      3.90518021	     -0.59710969	      3.56811404	    -11.32839342	    -21.47766401	     10.11133981	     -5.33843461	    -10.94997345	     -4.24405301	     -3.35559072
      4.44000000	      6.62189969	      0.30264017	     -5.93864027	      0.47698559	      0.92752378	      0.01728848	     21.86048548	     -1.95229680	     -1.77210914	    -56.65523240	     -2.05615897	      3.95190068	     -1.28205106	      3.54421187	    -11.04719651	    -21.36136948	     10.39219659	     -5.28737589	    -11.16898204	     -4.16390319	     -3.68737316
      4.45000000	      6.65066851	      0.27017845	     -5.69146756	      0.48451142	      0.92729819	      0.01736393	     22.13026020	     -1.87156042	     -2.06438817	    -54.01695457	     -1.70062002	      4.03211388	     -1.86548663	      3.53862385	    -10.84205272	    -21.29179317	     10.70406957	     -5.24630403	    -11.29174725	     -4.13935353	     -3.99123276
      4.46000000	      6.68137212	      0.24060644	     -5.47664063	      0.49208764	      0.92702438	      0.01757483	     22.27004908	     -1.75692839	     -2.30969856	    -51.14724066	     -1.48225132	      4.10692036	     -2.46534146	      3.53048606	    -10.65067090	    -21.20569099	     11.00253455	     -5.19452309	    -11.40252040	     -4.13090340	     -4.25690845
      4.47000000	      6.68871602	      0.22811202	     -5.29271970	      0.49973775	      0.92664727	      0.01790158	     22.31317458	     -1.62451976	     -2.50859069	    -48.06931867	     -1.34850445	      4.18636609	     -3.04771276	      3.53019655	    -10.49846185	    -21.11665901	     11.30007893	     -5.13537261	    -11.46646327	     -4.15002605	     -4.48583664
      4.48000000	      6.67384969	      0.23064266	     -5.13229911	      0.50747097	      0.92616996	      0.01833036	     22.25868986	     -1.47440331	     -2.65782617	    -44.79954866	     -1.30747707	      4.29514500	     -3.61409435	      3.53571723	    -10.38077806	    -21.02371026	     11.59789657	     -5.06743918	    -11.48618386	     -4.19207661	     -4.69015976
      4.49000000	      6.66961342	      0.25622520	     -4.99992999	      0.51528707	      0.92564403	      0.01886106	     22.07131595	     -1.31354765	     -2.73280825	    -41.35095261	     -1.35235179	      4.47737659	     -4.20377878	      3.56338657	    -10.27867223	    -20.91824097	     11.88267344	     -4.96121343	    -11.50029136	     -4.27240224	     -4.86288943
      4.50000000	      6.58063597	      0.28039731	     -4.84645413	      0.52320863	      0.92492578	      0.01937959	     21.85572836	     -1.14570436	     -2.82640169	    -37.75897387	     -1.47456260	      4.67469071	     -4.69299898	      3.56827754	    -10.20876280	    -20.84411546	     12.19433891	     -4.88157023	    -11.39859356	     -4.33152225	     -5.04981018
      4.51000000	      6.54224865	      0.33888395	     -4.71678316	      0.53122600	      0.92421403	      0.01998215	     21.47683480	     -0.99419149	     -2.84699407	    -34.05729332	     -1.62219494	      4.95118412	     -5.25894239	      3.61517155	    -10.13464796	    -20.73391730	     12.47403250	     -4.72332595	    -11.33417240	     -4.44583058	     -5.20259853
      4.52000000	      6.43421941	      0.40497563	     -4.55523240	      0.53929828	      0.92331999	      0.02055681	     21.08064159	     -0.85538876	     -2.89040290	    -30.30672489	     -1.85757945	      5.14900234	     -5.71549606	      3.64557955	    -10.08075627	    -20.69707147	     12.78219455	     -4.59009047	    -11.17989089	     -4.55083948	     -5.38288610
      4.53000000	      6.33873402	      0.49192808	     -4.39586755	      0.54749423	      0.92238070	      0.02117459	     20.59492342	     -0.74272740	     -2.94495490	    -26.57705993	     -2.11128621	      5.34300982	     -6.20253871	      3.69451355	    -10.02675893	    -20.63808893	     13.06152416	     -4.40695663	    -11.01631616	     -4.68313558	     -5.54243123
      4.54000000	      6.22752278	      0.60639248	     -4.22990960	      0.55576911	      0.92134765	      0.02182799	     20.09114323	     -0.66475552	     -3.03594304	    -22.97633995	     -2.40675630	      5.50710201	     -6.66593986	      3.76121238	     -9.97844274	    -20.59504483	     13.32022532	     -4.19685740	    -10.81808498	     -4.84512051	     -5.69054060
      4.55000000	      6.10649917	      0.73397485	     -4.04630512	      0.56407842	      0.92023095	      0.02251656	     19.59344931	     -0.60763044	     -3.18086864	    -19.59876190	     -2.74185512	      5.63791619	     -7.08256659	      3.82118417	     -9.93994946	    -20.62814404	     13.57907916	     -3.99163912	    -10.60175641	     -5.01976004	     -5.84539252
      4.56000000	      5.96091117	      0.88052786	     -3.86177736	      0.57245707	      0.91903620	      0.02327020	     19.15708717	     -0.57043361	     -3.38768403	    -16.55804061	     -3.09529870	      5.74916559	     -7.46789472	      3.88928348	     -9.89441531	    -20.67493105	     13.80677500	     -3.79451831	    -10.34214627	     -5.21491156	     -6.00127332
      4.57000000	      5.87453923	      1.01544923	     -3.66513860	      0.58086396	      0.91788144	      0.02409111	     18.69951943	     -0.52502879	     -3.64490694	    -13.91560570	     -3.31519809	      5.90915422	     -7.88395589	      3.93173661	     -9.81412212	    -20.79716059	     14.00040837	     -3.54114518	    -10.15316197	     -5.40317988	     -6.12025251
